<?xml version="1.0" encoding="UTF-8" standalone="no"?>
<!DOCTYPE svg PUBLIC "-//W3C//DTD SVG 1.1//EN" "http://www.w3.org/Graphics/SVG/1.1/DTD/svg11.dtd">
<svg width="100%" height="100%" viewBox="0 0 350 350" version="1.1" xmlns="http://www.w3.org/2000/svg" xmlns:xlink="http://www.w3.org/1999/xlink" xml:space="preserve" xmlns:serif="http://www.serif.com/" style="fill-rule:evenodd;clip-rule:evenodd;stroke-linejoin:round;stroke-miterlimit:2;">
    <g transform="matrix(4.29172,0,0,4.29172,-399.575,-751.334)">
        <path d="M143.706,184.886C143.706,183.869 142.88,183.043 141.863,183.043L138.176,183.043C137.159,183.043 136.333,183.869 136.333,184.886L136.333,212.534C136.333,213.551 137.159,214.377 138.176,214.377L141.863,214.377C142.88,214.377 143.706,213.551 143.706,212.534C143.706,212.534 142.026,202.8 142.026,198.192C142.026,193.722 143.706,184.886 143.706,184.886Z" style="fill:rgb(106,77,110);"/>
    </g>
    <g transform="matrix(-4.29172,0,0,4.29172,762.051,-751.334)">
        <path d="M143.706,184.886C143.706,183.869 142.88,183.043 141.863,183.043L138.176,183.043C137.159,183.043 136.333,183.869 136.333,184.886L136.333,212.534C136.333,213.551 137.159,214.377 138.176,214.377L141.863,214.377C142.88,214.377 143.706,213.551 143.706,212.534C143.706,212.534 142.026,202.8 142.026,198.192C142.026,193.722 143.706,184.886 143.706,184.886Z" style="fill:rgb(106,77,110);"/>
    </g>
    <g transform="matrix(4.29172,0,0,4.29172,-403.866,-755.626)">
        <path d="M143.706,184.886C143.706,183.869 142.88,183.043 141.863,183.043L138.176,183.043C137.159,183.043 136.333,183.869 136.333,184.886L136.333,212.534C136.333,213.551 137.159,214.377 138.176,214.377L141.863,214.377C142.88,214.377 143.706,213.551 143.706,212.534C143.706,212.534 142.026,202.8 142.026,198.192C142.026,193.722 143.706,184.886 143.706,184.886Z" style="fill:rgb(177,102,205);"/>
    </g>
    <g transform="matrix(-4.29172,0,0,4.29172,757.759,-755.626)">
        <path d="M143.706,184.886C143.706,183.869 142.88,183.043 141.863,183.043L138.176,183.043C137.159,183.043 136.333,183.869 136.333,184.886L136.333,212.534C136.333,213.551 137.159,214.377 138.176,214.377L141.863,214.377C142.88,214.377 143.706,213.551 143.706,212.534C143.706,212.534 142.026,202.8 142.026,198.192C142.026,193.722 143.706,184.886 143.706,184.886Z" style="fill:rgb(177,102,205);"/>
    </g>
    <g transform="matrix(4.29172,0,0,4.29172,-403.866,-753.051)">
        <path d="M109.656,250.041C104.219,250.041 102.844,246.874 102.095,243.298C100.952,237.837 97.667,221.719 97.667,216.722C97.667,209.491 105.551,207.806 109.71,208.36C117.966,209.46 127.005,210.617 136.333,210.839C145.662,210.617 154.701,209.46 162.957,208.36C167.115,207.806 175,209.491 175,216.722C175,221.719 171.714,237.837 170.571,243.298C169.823,246.874 168.448,250.041 163.011,250.041L109.656,250.041ZM140.56,223.382C140.56,221.562 139.082,220.085 137.263,220.085L135.404,220.085C133.584,220.085 132.107,221.562 132.107,223.382L132.107,240.412C132.107,242.231 133.584,243.708 135.404,243.708L137.263,243.708C139.082,243.708 140.56,242.231 140.56,240.412L140.56,223.382ZM152.887,223.407C153.194,221.574 154.375,220.085 156.208,220.085L157.851,220.085C159.684,220.085 161.173,221.574 161.173,223.407L157.851,240.387C157.646,242.322 156.363,243.708 154.53,243.708L152.887,243.708C151.054,243.708 149.565,242.22 149.565,240.387L152.887,223.407ZM119.78,223.407C119.473,221.574 118.291,220.085 116.458,220.085L114.815,220.085C112.982,220.085 111.494,221.574 111.494,223.407L114.815,240.387C115.02,242.322 116.304,243.708 118.137,243.708L119.78,243.708C121.613,243.708 123.101,242.22 123.101,240.387L119.78,223.407Z" style="fill:rgb(104,76,111);"/>
    </g>
    <g transform="matrix(4.29172,0,0,4.29172,-408.158,-757.343)">
        <path d="M109.656,250.041C104.219,250.041 102.844,246.874 102.095,243.298C100.952,237.837 97.667,221.719 97.667,216.722C97.667,209.491 105.551,207.806 109.71,208.36C117.966,209.46 127.005,210.617 136.333,210.839C145.662,210.617 154.701,209.46 162.957,208.36C167.115,207.806 175,209.491 175,216.722C175,221.719 171.714,237.837 170.571,243.298C169.823,246.874 168.448,250.041 163.011,250.041L109.656,250.041ZM140.56,223.382C140.56,221.562 139.082,220.085 137.263,220.085L135.404,220.085C133.584,220.085 132.107,221.562 132.107,223.382L132.107,240.412C132.107,242.231 133.584,243.708 135.404,243.708L137.263,243.708C139.082,243.708 140.56,242.231 140.56,240.412L140.56,223.382ZM152.887,223.407C153.194,221.574 154.375,220.085 156.208,220.085L157.851,220.085C159.684,220.085 161.173,221.574 161.173,223.407L157.851,240.387C157.646,242.322 156.363,243.708 154.53,243.708L152.887,243.708C151.054,243.708 149.565,242.22 149.565,240.387L152.887,223.407ZM119.78,223.407C119.473,221.574 118.291,220.085 116.458,220.085L114.815,220.085C112.982,220.085 111.494,221.574 111.494,223.407L114.815,240.387C115.02,242.322 116.304,243.708 118.137,243.708L119.78,243.708C121.613,243.708 123.101,242.22 123.101,240.387L119.78,223.407Z" style="fill:rgb(177,158,205);"/>
    </g>
</svg>
